<?xml version="1.0" standalone="no"?><!DOCTYPE svg PUBLIC "-//W3C//DTD SVG 1.1//EN" "http://www.w3.org/Graphics/SVG/1.1/DTD/svg11.dtd"><svg t="1564280083390" class="icon" viewBox="0 0 1024 1024" version="1.1" xmlns="http://www.w3.org/2000/svg" p-id="8391" xmlns:xlink="http://www.w3.org/1999/xlink" width="200" height="200"><defs><style type="text/css"></style></defs><path d="M896 704c0 16.213333-8.96 30.293333-22.613333 37.546667l-337.066667 189.44c-6.826667 5.12-15.36 7.68-24.32 7.68-8.96 0-17.493333-2.56-24.32-7.68l-337.066667-189.44A42.282667 42.282667 0 0 1 128 704v-384c0-16.213333 8.96-30.293333 22.613333-37.546667l337.066667-189.44c6.826667-5.12 15.36-7.68 24.32-7.68 8.96 0 17.493333 2.56 24.32 7.68l337.066667 189.44c13.653333 7.253333 22.613333 21.333333 22.613333 37.546667v384M213.333333 384v256h53.333334v-85.333333H298.666667a85.333333 85.333333 0 0 0 85.333333-85.333334 85.333333 85.333333 0 0 0-85.333333-85.333333H213.333333m53.333334 128v-85.333333h21.333333a42.666667 42.666667 0 0 1 42.666667 42.666666 42.666667 42.666667 0 0 1-42.666667 42.666667h-21.333333m149.333333-128v256H469.333333v-85.333333h32l28.16 85.333333h56.32l-33.706666-101.973333c20.906667-15.36 34.56-40.533333 34.56-68.693334a85.333333 85.333333 0 0 0-85.333334-85.333333h-85.333333M469.333333 512v-85.333333h21.333334a42.666667 42.666667 0 0 1 42.666666 42.666666 42.666667 42.666667 0 0 1-42.666666 42.666667H469.333333m256-128c-58.88 0-106.666667 57.173333-106.666666 128s47.786667 128 106.666666 128 106.666667-57.173333 106.666667-128-47.786667-128-106.666667-128m0 53.333333c32.426667 0 58.88 33.28 58.88 74.666667s-26.453333 74.666667-58.88 74.666667c-32.426667 0-58.453333-33.28-58.453333-74.666667s26.026667-74.666667 58.453333-74.666667z" fill="" p-id="8392"></path></svg>